<?xml version="1.0" encoding="utf-8"?>
<!-- Generator: Adobe Illustrator 24.1.0, SVG Export Plug-In . SVG Version: 6.00 Build 0)  -->
<svg version="1.1" id="Layer_1" xmlns="http://www.w3.org/2000/svg" xmlns:xlink="http://www.w3.org/1999/xlink" x="0px" y="0px"
	 viewBox="0 0 50 50" style="enable-background:new 0 0 50 50;" xml:space="preserve">
<style type="text/css">
	.st0{fill:url(#SVGID_1_);}
</style>
<linearGradient id="SVGID_1_" gradientUnits="userSpaceOnUse" x1="4" y1="24.9999" x2="46" y2="24.9999">
	<stop  offset="2.994285e-03" style="stop-color:#F1623E"/>
	<stop  offset="0.1648" style="stop-color:#F37135"/>
	<stop  offset="0.455" style="stop-color:#F58728"/>
	<stop  offset="0.737" style="stop-color:#F79420"/>
	<stop  offset="0.9992" style="stop-color:#F7981D"/>
</linearGradient>
<path class="st0" d="M20,46.2c-0.2,0-0.3,0-0.5-0.1l-10-5.8C9.2,40.1,9,39.8,9,39.4s0.2-0.7,0.5-0.9l9.5-5.5V16.9l-9.5-5.5
	C9.2,11.3,9,10.9,9,10.6s0.2-0.7,0.5-0.9l10-5.8c0.3-0.2,0.7-0.2,1,0S21,4.4,21,4.8v11l14,8.1l9.5-5.5c0.3-0.2,0.7-0.2,1,0
	c0.3,0.2,0.5,0.5,0.5,0.9v11.5c0,0.4-0.2,0.7-0.5,0.9c-0.3,0.2-0.7,0.2-1,0L35,26.2l-14,8.1v11c0,0.4-0.2,0.7-0.5,0.9
	C20.3,46.2,20.2,46.2,20,46.2z M12,39.4l7,4v-8.1L12,39.4z M21,18.1v13.9L33,25L21,18.1z M37,25l7,4V21L37,25z M12,10.6l7,4V6.5
	L12,10.6z M30,46.2c-0.2,0-0.3,0-0.5-0.1c-0.3-0.2-0.5-0.5-0.5-0.9V33.7c0-0.4,0.2-0.7,0.5-0.9c0.3-0.2,0.7-0.2,1,0l10,5.8
	c0.3,0.2,0.5,0.5,0.5,0.9s-0.2,0.7-0.5,0.9l-10,5.8C30.3,46.2,30.2,46.2,30,46.2z M31,35.4v8.1l7-4L31,35.4z M5,31.8
	c-0.2,0-0.3,0-0.5-0.1C4.2,31.5,4,31.1,4,30.8V19.2c0-0.4,0.2-0.7,0.5-0.9s0.7-0.2,1,0l10,5.8c0.3,0.2,0.5,0.5,0.5,0.9
	s-0.2,0.7-0.5,0.9l-10,5.8C5.3,31.7,5.2,31.8,5,31.8z M6,21V29l7-4L6,21z M30,17.3c-0.2,0-0.3,0-0.5-0.1C29.2,17,29,16.7,29,16.3
	V4.8c0-0.4,0.2-0.7,0.5-0.9c0.3-0.2,0.7-0.2,1,0l10,5.8c0.3,0.2,0.5,0.5,0.5,0.9s-0.2,0.7-0.5,0.9l-10,5.8
	C30.3,17.3,30.2,17.3,30,17.3z M31,6.5v8.1l7-4L31,6.5z"/>
</svg>
